<?xml version="1.0" encoding="UTF-8" standalone="no"?>
<!-- Created with Inkscape (http://www.inkscape.org/) -->

<svg
   width="62.5mm"
   height="62.5mm"
   viewBox="0 0 62.5 62.5"
   version="1.1"
   id="svg5"
   inkscape:version="1.1 (c4e8f9e, 2021-05-24)"
   sodipodi:docname="openlink-logo.svg"
   xmlns:inkscape="http://www.inkscape.org/namespaces/inkscape"
   xmlns:sodipodi="http://sodipodi.sourceforge.net/DTD/sodipodi-0.dtd"
   xmlns="http://www.w3.org/2000/svg"
   xmlns:svg="http://www.w3.org/2000/svg">
  <sodipodi:namedview
     id="namedview7"
     pagecolor="#ffffff"
     bordercolor="#666666"
     borderopacity="1.0"
     inkscape:pageshadow="2"
     inkscape:pageopacity="0.0"
     inkscape:pagecheckerboard="0"
     inkscape:document-units="mm"
     showgrid="false"
     inkscape:zoom="0.77771465"
     inkscape:cx="309.23939"
     inkscape:cy="160.72733"
     inkscape:window-width="1990"
     inkscape:window-height="1324"
     inkscape:window-x="448"
     inkscape:window-y="58"
     inkscape:window-maximized="0"
     inkscape:current-layer="layer1" />
  <defs
     id="defs2" />
  <g
     inkscape:label="Layer 1"
     inkscape:groupmode="layer"
     id="layer1">
    <rect
       style="fill:#000000;stroke-width:5.2793;stroke-linejoin:round"
       id="rect1224-1-5"
       width="24"
       height="5"
       x="22.500244"
       y="47.50024" />
    <path
       id="path2171"
       style="fill:#000000;stroke-width:5.76659;stroke-linejoin:round"
       d="M 25.000057,10.000456 A 15,15 0 0 0 10.000456,25.000057 15,15 0 0 0 25.000057,40.000174 15,15 0 0 0 40.000174,25.000057 15,15 0 0 0 25.000057,10.000456 Z m 0,4.999694 A 10,10 0 0 1 35.00048,25.000057 10,10 0 0 1 25.000057,35.00048 10,10 0 0 1 15.00015,25.000057 10,10 0 0 1 25.000057,15.00015 Z" />
    <rect
       style="fill:#000000;stroke-width:5.37853;stroke-linejoin:round"
       id="rect2424"
       width="5"
       height="30"
       x="22.500244"
       y="22.500244" />
    <rect
       style="fill:#000000;stroke-width:5.37853;stroke-linejoin:round"
       id="rect2424-1"
       width="5"
       height="30"
       x="47.50024"
       y="22.500244" />
    <rect
       style="fill:#ffffff;stroke-width:3.57542;stroke-linejoin:round"
       id="rect2745"
       width="12.088245"
       height="1"
       x="28.500244"
       y="27.500244" />
    <path
       id="path3396"
       style="fill:#ffffff;stroke-width:8.69942;stroke-linejoin:round"
       d="M 25.000057,9 A 16,16 0 0 0 9,25.000057 16,16 0 0 0 25.000057,41.000113 16,16 0 0 0 41.000113,25.000057 16,16 0 0 0 25.000057,9 Z m 0,1.000456 A 15,15 0 0 1 40.000174,25.000057 15,15 0 0 1 25.000057,40.000174 15,15 0 0 1 10.000456,25.000057 15,15 0 0 1 25.000057,10.000456 Z" />
    <rect
       style="fill:#000000;stroke-width:5.2793;stroke-linejoin:round"
       id="rect1224-1-5-2"
       width="24"
       height="5"
       x="28.500244"
       y="22.500244" />
  </g>
</svg>
