<?xml version="1.0" encoding="UTF-8" standalone="no"?>
<svg
   xmlns:dc="http://purl.org/dc/elements/1.1/"
   xmlns:cc="http://creativecommons.org/ns#"
   xmlns:rdf="http://www.w3.org/1999/02/22-rdf-syntax-ns#"
   xmlns:svg="http://www.w3.org/2000/svg"
   xmlns="http://www.w3.org/2000/svg"
   xmlns:sodipodi="http://sodipodi.sourceforge.net/DTD/sodipodi-0.dtd"
   xmlns:inkscape="http://www.inkscape.org/namespaces/inkscape"
   sodipodi:docname="openlink.svg"
   inkscape:version="1.0 (4035a4f, 2020-05-01)"
   id="svg1057"
   version="1.1"
   viewBox="0 0 99.218747 23.812502"
   height="90"
   width="375">
  <defs
     id="defs1051" />
  <sodipodi:namedview
     inkscape:window-maximized="0"
     inkscape:window-y="154"
     inkscape:window-x="1354"
     inkscape:window-height="1174"
     inkscape:window-width="1790"
     units="px"
     showgrid="false"
     inkscape:document-rotation="0"
     inkscape:current-layer="layer1"
     inkscape:document-units="mm"
     inkscape:cy="155.27694"
     inkscape:cx="189.85104"
     inkscape:zoom="2.8"
     inkscape:pageshadow="2"
     inkscape:pageopacity="0.0"
     borderopacity="1.0"
     bordercolor="#666666"
     pagecolor="#ffffff"
     id="base" />
  <metadata
     id="metadata1054">
    <rdf:RDF>
      <cc:Work
         rdf:about="">
        <dc:format>image/svg+xml</dc:format>
        <dc:type
           rdf:resource="http://purl.org/dc/dcmitype/StillImage" />
        <dc:title></dc:title>
      </cc:Work>
    </rdf:RDF>
  </metadata>
  <g
     id="layer1"
     inkscape:groupmode="layer"
     inkscape:label="Layer 1">
    <path
       transform="scale(0.26458333)"
       d="M 45.353516,7.5585938 A 37.795276,37.795276 0 0 0 7.5585938,45.353516 37.795276,37.795276 0 0 0 45.353516,83.148438 37.795276,37.795276 0 0 0 70.351562,73.701172 H 69.921875 V 59.496094 A 28.346457,28.346457 0 0 1 45.353516,73.701172 28.346457,28.346457 0 0 1 17.007812,45.353516 28.346457,28.346457 0 0 1 45.150391,17.007812 a 28.346457,28.346457 0 0 1 0.203125,0 28.346457,28.346457 0 0 1 28.347656,28.345704 28.346457,28.346457 0 0 1 -1.890625,10.177734 v 16.8125 A 37.795276,37.795276 0 0 0 83.148438,45.353516 37.795276,37.795276 0 0 0 45.353516,7.5585938 Z"
       style="fill:#000000;stroke-width:0.999999"
       id="path1973" />
    <path
       transform="scale(0.26458333)"
       d="M 60.472656,7.5585938 V 21.375 a 28.346457,28.346457 0 0 1 9.449219,9.835938 V 7.5585938 Z m 0,16.0878902 v 59.503907 h 9.449219 V 35.541016 A 26.456693,26.456693 0 0 0 60.472656,23.646484 Z"
       style="fill:#000000;stroke-width:0.382828"
       id="rect1975" />
    <rect
       y="19.5"
       x="16"
       height="2.5"
       width="17"
       id="rect1982"
       style="fill:#000000;stroke-width:0.216633" />
    <rect
       y="2"
       x="19"
       height="2.5"
       width="17"
       id="rect1984"
       style="fill:#000000;stroke-width:0.336122" />
    <rect
       y="2"
       x="33.5"
       height="20"
       width="2.5"
       id="rect1986"
       style="fill:#000000;stroke-width:0.289803" />
    <text
       id="text2029"
       y="15.649023"
       x="39.342674"
       style="font-style:normal;font-weight:normal;font-size:12.7px;line-height:1.25;font-family:sans-serif;fill:#000000;fill-opacity:1;stroke:none;stroke-width:0.264583"
       xml:space="preserve"><tspan
         style="font-style:normal;font-variant:normal;font-weight:normal;font-stretch:normal;font-size:12.7px;font-family:sans-serif;-inkscape-font-specification:sans-serif;stroke-width:0.264583"
         y="15.649023"
         x="39.342674"
         id="tspan2027"
         sodipodi:role="line">openlink</tspan></text>
  </g>
</svg>
