<?xml version="1.0" encoding="UTF-8" standalone="no"?>
<!-- Created with Inkscape (http://www.inkscape.org/) -->

<svg
   width="162mm"
   height="62.5mm"
   viewBox="0 0 162 62.5"
   version="1.1"
   id="svg5"
   inkscape:version="1.1 (c4e8f9e, 2021-05-24)"
   sodipodi:docname="openlink-full.svg"
   inkscape:export-filename="/Users/hold3n/trilloop/openlink/openlink.png"
   inkscape:export-xdpi="162.56"
   inkscape:export-ydpi="162.56"
   xmlns:inkscape="http://www.inkscape.org/namespaces/inkscape"
   xmlns:sodipodi="http://sodipodi.sourceforge.net/DTD/sodipodi-0.dtd"
   xmlns="http://www.w3.org/2000/svg"
   xmlns:svg="http://www.w3.org/2000/svg">
  <sodipodi:namedview
     id="namedview7"
     pagecolor="#ffffff"
     bordercolor="#666666"
     borderopacity="1.0"
     inkscape:pageshadow="2"
     inkscape:pageopacity="0.0"
     inkscape:pagecheckerboard="0"
     inkscape:document-units="mm"
     showgrid="false"
     inkscape:zoom="1.5554293"
     inkscape:cx="354.56449"
     inkscape:cy="235.30481"
     inkscape:window-width="1990"
     inkscape:window-height="1324"
     inkscape:window-x="448"
     inkscape:window-y="30"
     inkscape:window-maximized="0"
     inkscape:current-layer="layer1" />
  <defs
     id="defs2" />
  <g
     inkscape:label="Layer 1"
     inkscape:groupmode="layer"
     id="layer1">
    <path
       id="rect1224-1-5"
       style="fill:#000000;stroke-width:19.9533;stroke-linejoin:round"
       d="M 94.488281,37.796875 A 56.692912,56.692912 0 0 0 37.796875,94.488281 56.692912,56.692912 0 0 0 85.041016,150.30273 v 0.0664 a 56.692911,56.692911 0 0 0 0.734375,0.0937 56.692912,56.692912 0 0 0 1.662109,0.21289 56.692911,56.692911 0 0 0 7.050781,0.50586 56.692911,56.692911 0 0 0 7.640629,-0.56836 56.692912,56.692912 0 0 0 1.12695,-0.14258 56.692911,56.692911 0 0 0 0.68164,-0.0859 v -0.0684 A 56.692912,56.692912 0 0 0 149.61523,107.7168 H 129.89062 A 37.795276,37.795276 0 0 1 103.9375,130.93945 V 85.041016 H 85.041016 V 130.9375 A 37.795276,37.795276 0 0 1 56.693359,94.488281 37.795276,37.795276 0 0 1 94.488281,56.693359 37.795276,37.795276 0 0 1 130.9375,85.041016 H 107.7168 V 103.9375 h 23.36718 19.30079 29.14453 v 94.48828 h 18.89648 V 103.9375 85.041016 H 179.5293 150.30273 A 56.692912,56.692912 0 0 0 94.488281,37.796875 Z M 85.041016,154.20312 v 25.32618 18.89648 H 103.9375 175.74805 V 179.5293 H 103.9375 v -25.3125 a 60.472439,60.472439 0 0 1 -9.449219,0.74414 60.472439,60.472439 0 0 1 -9.447265,-0.75782 z"
       transform="scale(0.26458333)" />
    <text
       xml:space="preserve"
       style="font-style:normal;font-weight:normal;font-size:19.7556px;line-height:1.25;font-family:sans-serif;fill:#000000;fill-opacity:1;stroke:none;stroke-width:0.264583"
       x="61.788799"
       y="36.851212"
       id="text1835"><tspan
         sodipodi:role="line"
         id="tspan1833"
         style="font-style:normal;font-variant:normal;font-weight:bold;font-stretch:normal;font-size:19.7556px;font-family:Evolventa;-inkscape-font-specification:'Evolventa Bold';stroke-width:0.264583"
         x="61.788799"
         y="36.851212">OpenLink</tspan></text>
  </g>
</svg>
