<?xml version="1.0" encoding="UTF-8" standalone="no"?>
<!DOCTYPE svg PUBLIC "-//W3C//DTD SVG 1.1//EN" "http://www.w3.org/Graphics/SVG/1.1/DTD/svg11.dtd">
<svg width="100%" height="100%" viewBox="0 0 460 178" version="1.1" xmlns="http://www.w3.org/2000/svg" xmlns:xlink="http://www.w3.org/1999/xlink" xml:space="preserve" xmlns:serif="http://www.serif.com/" style="fill-rule:evenodd;clip-rule:evenodd;stroke-linejoin:round;stroke-miterlimit:2;">
    <g id="Layer-1" serif:id="Layer 1">
        <g id="text1835">
            <path id="path11931" d="M199.061,62.348C186.685,62.348 177.165,71.7 177.165,83.796C177.165,95.78 186.797,105.188 198.949,105.188C210.989,105.188 220.285,95.836 220.285,83.74C220.285,71.924 210.821,62.348 199.061,62.348ZM198.557,69.74C206.621,69.74 212.557,75.732 212.557,83.852C212.557,91.86 206.733,97.796 198.893,97.796C191.053,97.796 184.893,91.636 184.893,83.74C184.893,75.956 190.997,69.74 198.557,69.74Z" style="fill:white;fill-rule:nonzero;"/>
            <path id="path11933" d="M225.325,114.82L232.773,114.82L232.773,101.548C235.629,104.068 238.485,105.188 242.293,105.188C251.253,105.188 257.805,98.244 257.805,88.836C257.805,79.484 251.309,72.708 242.349,72.708C238.149,72.708 234.565,74.22 232.157,77.076L232.157,73.436L225.325,73.436L225.325,114.82ZM241.229,79.54C246.493,79.54 250.301,83.572 250.301,89.004C250.301,94.268 246.437,98.356 241.453,98.356C236.301,98.356 232.325,94.324 232.325,89.06C232.325,83.628 236.189,79.54 241.229,79.54Z" style="fill:white;fill-rule:nonzero;"/>
            <path id="path11935" d="M293.029,92.252C293.253,91.188 293.31,90.516 293.31,89.396C293.31,79.764 286.534,72.708 277.294,72.708C268.165,72.708 260.941,79.932 260.941,89.06C260.941,98.132 268.277,105.188 277.742,105.188C282.838,105.188 286.814,103.396 290.062,99.588C291.238,98.132 292.022,96.844 292.526,95.276L284.406,95.276C282.502,97.516 280.654,98.356 277.574,98.356C273.15,98.356 269.902,96.004 269.005,92.252L293.029,92.252ZM268.781,85.7C269.957,81.668 272.981,79.54 277.405,79.54C281.997,79.54 285.021,81.724 285.973,85.7L268.781,85.7Z" style="fill:white;fill-rule:nonzero;"/>
            <path id="path11937" d="M297.901,104.46L305.349,104.46L305.349,89.844C305.349,85.812 305.63,84.02 306.525,82.564C307.645,80.604 309.605,79.54 312.069,79.54C313.973,79.54 315.429,80.156 316.437,81.388C317.557,82.732 318.005,85.028 318.005,89.284L318.005,104.46L325.453,104.46L325.453,87.828C325.453,82.452 324.949,79.876 323.437,77.468C321.421,74.388 317.949,72.708 313.525,72.708C309.941,72.708 307.533,73.716 304.789,76.404L304.789,73.436L297.901,73.436L297.901,104.46Z" style="fill:white;fill-rule:nonzero;"/>
            <path id="path11939" d="M332.341,104.46L352.67,104.46L352.67,97.124L340.014,97.124L340.014,63.076L332.341,63.076L332.341,104.46Z" style="fill:rgb(79,38,131);fill-rule:nonzero;"/>
            <path id="path11941" d="M356.813,104.46L364.261,104.46L364.261,73.436L356.813,73.436L356.813,104.46ZM356.813,70.076L364.261,70.076L364.261,63.076L356.813,63.076L356.813,70.076Z" style="fill:rgb(79,38,131);fill-rule:nonzero;"/>
            <path id="path11943" d="M370.309,104.46L377.757,104.46L377.757,89.844C377.757,85.812 378.038,84.02 378.933,82.564C380.054,80.604 382.013,79.54 384.478,79.54C386.382,79.54 387.837,80.156 388.845,81.388C389.966,82.732 390.414,85.028 390.414,89.284L390.414,104.46L397.862,104.46L397.862,87.828C397.862,82.452 397.358,79.876 395.846,77.468C393.83,74.388 390.358,72.708 385.933,72.708C382.349,72.708 379.941,73.716 377.197,76.404L377.197,73.436L370.309,73.436L370.309,104.46Z" style="fill:rgb(79,38,131);fill-rule:nonzero;"/>
            <path id="path11945" d="M403.798,104.46L411.246,104.46L411.246,89.956L421.83,104.46L431.854,104.46L418.974,88.612L430.062,73.436L421.158,73.436L411.246,88.052L411.246,63.076L403.798,63.076L403.798,104.46Z" style="fill:rgb(79,38,131);fill-rule:nonzero;"/>
        </g>
        <path id="rect1224-1-5-8" d="M63.778,63.778L63.778,112.776C66.119,113.176 68.49,113.38 70.865,113.385C73.24,113.384 75.61,113.184 77.952,112.787L77.952,63.778L63.778,63.778ZM63.778,115.651L63.778,148.818L102.046,148.818L102.046,134.644L77.952,134.644L77.952,115.661C75.608,116.033 73.238,116.219 70.865,116.22C68.491,116.216 66.122,116.026 63.778,115.651Z" style="fill:rgb(79,38,131);fill-rule:nonzero;"/>
        <path id="path2171" d="M70.865,28.346C47.54,28.347 28.347,47.54 28.346,70.865C28.346,94.19 47.54,113.384 70.865,113.385C90.459,113.385 107.638,99.84 112.21,80.786L97.417,80.786C93.287,91.841 82.666,99.212 70.865,99.213C55.315,99.213 42.519,86.417 42.519,70.866C42.519,70.866 42.519,70.865 42.519,70.865C42.519,55.315 55.315,42.519 70.865,42.519C70.865,42.519 70.866,42.519 70.866,42.519C86.417,42.519 99.213,55.315 99.213,70.865C99.212,73.256 98.91,75.637 98.312,77.952L112.787,77.952C113.184,75.61 113.384,73.24 113.385,70.865C113.384,47.54 94.19,28.346 70.865,28.346Z" style="fill:white;fill-rule:nonzero;"/>
        <path id="rect2424-1" d="M80.786,63.778L80.786,77.952L134.644,77.952L134.644,134.644L104.88,134.644L104.88,148.818L148.818,148.818L148.818,63.778L80.786,63.778Z" style="fill:rgb(79,38,131);fill-rule:nonzero;"/>
    </g>
</svg>
