<?xml version="1.0" encoding="UTF-8" standalone="no"?>
<!-- Created with Inkscape (http://www.inkscape.org/) -->

<svg
   width="162mm"
   height="62.5mm"
   viewBox="0 0 162 62.5"
   version="1.1"
   id="svg5"
   inkscape:version="1.1.1 (c3084ef, 2021-09-22)"
   sodipodi:docname="openlink-full-path-mtg.svg"
   inkscape:export-filename="/Users/hold3n/trilloop/openlink/openlink.png"
   inkscape:export-xdpi="162.56"
   inkscape:export-ydpi="162.56"
   xmlns:inkscape="http://www.inkscape.org/namespaces/inkscape"
   xmlns:sodipodi="http://sodipodi.sourceforge.net/DTD/sodipodi-0.dtd"
   xmlns="http://www.w3.org/2000/svg"
   xmlns:svg="http://www.w3.org/2000/svg">
  <sodipodi:namedview
     id="namedview7"
     pagecolor="#ffffff"
     bordercolor="#666666"
     borderopacity="1.0"
     inkscape:pageshadow="2"
     inkscape:pageopacity="0.0"
     inkscape:pagecheckerboard="0"
     inkscape:document-units="mm"
     showgrid="false"
     inkscape:zoom="1.5554293"
     inkscape:cx="358.42195"
     inkscape:cy="5.1432746"
     inkscape:window-width="1990"
     inkscape:window-height="1324"
     inkscape:window-x="1238"
     inkscape:window-y="25"
     inkscape:window-maximized="0"
     inkscape:current-layer="layer1" />
  <defs
     id="defs2" />
  <g
     inkscape:label="Layer 1"
     inkscape:groupmode="layer"
     id="layer1">
    <g
       aria-label="OpenLink"
       id="text1835"
       style="font-size:19.7556px;line-height:1.25;stroke-width:0.264583">
      <path
         d="m 70.22444,21.995 c -4.365987,0 -7.724439,3.299186 -7.724439,7.566395 0,4.227699 3.397963,7.546639 7.684928,7.546639 4.247454,0 7.526884,-3.299185 7.526884,-7.566394 0,-4.168432 -3.338697,-7.54664 -7.487373,-7.54664 z m -0.1778,2.60774 c 2.844806,0 4.9389,2.113849 4.9389,4.978411 0,2.825051 -2.054582,4.919144 -4.820366,4.919144 -2.765784,0 -4.9389,-2.173116 -4.9389,-4.958655 0,-2.746029 2.15336,-4.9389 4.820366,-4.9389 z"
         style="font-weight:bold;font-family:Evolventa;-inkscape-font-specification:'Evolventa Bold'"
         id="path11931" />
      <path
         d="m 79.489799,40.505998 h 2.627495 V 35.82392 c 1.007535,0.889002 2.015071,1.284114 3.358452,1.284114 3.160896,0 5.472301,-2.449694 5.472301,-5.768635 0,-3.299185 -2.29165,-5.689613 -5.452546,-5.689613 -1.48167,0 -2.746028,0.533402 -3.595519,1.540937 v -1.284114 h -2.410183 z m 5.61059,-12.446028 c 1.857027,0 3.200408,1.422403 3.200408,3.338696 0,1.857026 -1.363137,3.299185 -3.121385,3.299185 -1.817515,0 -3.220163,-1.422403 -3.220163,-3.279429 0,-1.916294 1.363136,-3.358452 3.14114,-3.358452 z"
         style="font-weight:bold;font-family:Evolventa;-inkscape-font-specification:'Evolventa Bold'"
         id="path11933" />
      <path
         d="m 103.37429,32.544491 c 0.079,-0.375357 0.0988,-0.612424 0.0988,-1.007536 0,-3.397963 -2.39043,-5.887169 -5.650099,-5.887169 -3.220163,0 -5.768635,2.548473 -5.768635,5.768636 0,3.200407 2.587983,5.689612 5.92668,5.689612 1.797759,0 3.200404,-0.632179 4.346234,-1.97556 0.41487,-0.513645 0.69144,-0.968024 0.86924,-1.521181 h -2.86456 c -0.671688,0.790224 -1.323623,1.086558 -2.410181,1.086558 -1.560693,0 -2.706517,-0.829735 -3.022607,-2.15336 z m -8.55417,-2.311405 c 0.414867,-1.422404 1.48167,-2.173116 3.042362,-2.173116 1.619959,0 2.686758,0.770468 3.022608,2.173116 z"
         style="font-weight:bold;font-family:Evolventa;-inkscape-font-specification:'Evolventa Bold'"
         id="path11935" />
      <path
         d="m 105.09301,36.851212 h 2.62749 V 31.695 c 0,-1.422403 0.0988,-2.054582 0.41487,-2.568228 0.39511,-0.691446 1.08656,-1.066802 1.95581,-1.066802 0.67169,0 1.18533,0.217311 1.54093,0.651934 0.39511,0.474135 0.55316,1.284114 0.55316,2.78554 v 5.353768 h 2.62749 v -5.867414 c 0,-1.896537 -0.1778,-2.805295 -0.7112,-3.654786 -0.7112,-1.086558 -1.93605,-1.679226 -3.49674,-1.679226 -1.26436,0 -2.11385,0.355601 -3.08187,1.30387 v -1.047047 h -2.42994 z"
         style="font-weight:bold;font-family:Evolventa;-inkscape-font-specification:'Evolventa Bold'"
         id="path11937" />
      <path
         d="m 117.24269,36.851212 h 7.17129 v -2.587984 h -4.46477 V 22.251823 h -2.70652 z"
         style="font-weight:bold;font-family:Evolventa;-inkscape-font-specification:'Evolventa Bold';fill:#4f2683;fill-opacity:1"
         id="path11939" />
      <path
         d="m 125.87587,36.851212 h 2.62749 V 25.906609 h -2.62749 z m 0,-12.129939 h 2.62749 v -2.46945 h -2.62749 z"
         style="font-weight:bold;font-family:Evolventa;-inkscape-font-specification:'Evolventa Bold';fill:#4f2683;fill-opacity:1"
         id="path11941" />
      <path
         d="m 130.63695,36.851212 h 2.6275 V 31.695 c 0,-1.422403 0.0988,-2.054582 0.41486,-2.568228 0.39512,-0.691446 1.08656,-1.066802 1.95581,-1.066802 0.67169,0 1.18533,0.217311 1.54093,0.651934 0.39512,0.474135 0.55316,1.284114 0.55316,2.78554 v 5.353768 h 2.6275 v -5.867414 c 0,-1.896537 -0.1778,-2.805295 -0.71121,-3.654786 -0.7112,-1.086558 -1.93604,-1.679226 -3.49674,-1.679226 -1.26436,0 -2.11385,0.355601 -3.08187,1.30387 v -1.047047 h -2.42994 z"
         style="font-weight:bold;font-family:Evolventa;-inkscape-font-specification:'Evolventa Bold';fill:#4f2683;fill-opacity:1"
         id="path11943" />
      <path
         d="m 142.45079,36.851212 h 2.62749 v -5.116701 l 3.73381,5.116701 h 3.53625 l -4.54379,-5.590835 3.91161,-5.353768 h -3.14114 l -3.49674,5.156212 v -8.810998 h -2.62749 z"
         style="font-weight:bold;font-family:Evolventa;-inkscape-font-specification:'Evolventa Bold';fill:#4f2683;fill-opacity:1"
         id="path11945" />
      <g
         id="layer1-8"
         transform="matrix(0.30042935,0,0,0.30042935,116.94226,38.550571)">
        <rect
           x="1"
           y="1"
           width="116.499"
           height="6"
           id="rect839"
           stroke-width="0.227534"
           fill="#000000" />
        <g
           id="text843"
           stroke="none"
           stroke-width="0.268434"
           fill="#ffffff"
           fill-opacity="1"
           font-family="Arial"
           font-style="normal"
           font-weight="400"
           font-size="17.1798px"
           transform="scale(0.985655,1.01455)">
          <path
             d="m 4.12672,20.5058 v -6.3837 h 0.16777 l 1.96292,4.2111 H 8.1029 l 1.9461,-4.2111 h 0.1594 v 6.3837 h 3.1625 V 9.05544 H 9.72189 L 7.26404,14.1641 H 7.1466 L 4.69714,9.05544 H 1.01455 V 20.5058 Z"
             id="path2066"
             stroke-width="0.268434"
             fill="#4f2683"
             fill-opacity="1"
             font-family="'.SF Compact'"
             font-style="normal"
             font-variant="normal"
             font-weight="400"
             font-stretch="normal"
             font-size="17.1798px" />
          <path
             d="M 19.2345,20.5058 V 9.05544 H 15.7113 V 20.5058 Z"
             id="path2068"
             stroke-width="0.268434"
             fill="#4f2683"
             fill-opacity="1"
             font-family="'.SF Compact'"
             font-style="normal"
             font-variant="normal"
             font-weight="400"
             font-stretch="normal"
             font-size="17.1798px" />
          <path
             d="m 24.8129,20.5058 v -5.6371 h 0.1343 l 3.9258,5.6371 h 2.6172 V 9.05544 H 28.2606 V 14.5919 H 28.1264 L 24.2257,9.05544 H 21.5833 V 20.5058 Z"
             id="path2070"
             stroke-width="0.268434"
             fill="#4f2683"
             fill-opacity="1"
             font-family="'.SF Compact'"
             font-style="normal"
             font-variant="normal"
             font-weight="400"
             font-stretch="normal"
             font-size="17.1798px" />
          <path
             d="M 33.8307,9.05544 V 20.5058 h 4.9744 c 1.2191,0 2.2146,-0.2404 2.9863,-0.7214 0.7774,-0.4865 1.3506,-1.166 1.7197,-2.0384 0.3691,-0.8724 0.5536,-1.8846 0.5536,-3.0367 0,-1.1352 -0.1817,-2.1251 -0.5452,-2.9695 -0.358,-0.8501 -0.9228,-1.51 -1.6945,-1.97972 C 41.0532,9.29032 40.0466,9.05544 38.8051,9.05544 Z m 3.5232,2.70946 h 0.8053 c 0.5592,0 1.0066,0.1147 1.3421,0.344 0.3356,0.2293 0.5788,0.5704 0.7298,1.0234 0.151,0.453 0.2265,1.0122 0.2265,1.6777 0,0.4977 -0.0419,0.9339 -0.1258,1.3086 -0.0839,0.3747 -0.2153,0.6879 -0.3943,0.9395 -0.1789,0.2461 -0.4166,0.4307 -0.713,0.5537 -0.2908,0.123 -0.6459,0.1845 -1.0653,0.1845 h -0.8053 z"
             id="path2072"
             stroke-width="0.268434"
             fill="#4f2683"
             fill-opacity="1"
             font-family="'.SF Compact'"
             font-style="normal"
             font-variant="normal"
             font-weight="400"
             font-stretch="normal"
             font-size="17.1798px" />
          <path
             d="M 55.1292,20.5058 V 11.874 h 2.9109 V 9.05544 H 48.6952 V 11.874 h 2.9108 v 8.6318 z"
             id="path2074"
             stroke-width="0.268434"
             fill="#4f2683"
             fill-opacity="1"
             font-family="'.SF Compact'"
             font-style="normal"
             font-variant="normal"
             font-weight="400"
             font-stretch="normal"
             font-size="17.1798px" />
          <path
             d="M 69.8596,20.5058 V 9.05544 H 66.3364 V 13.3756 H 63.0229 V 9.05544 H 59.4997 V 20.5058 h 3.5232 V 16.169 h 3.3135 v 4.3368 z"
             id="path2076"
             stroke-width="0.268434"
             fill="#4f2683"
             fill-opacity="1"
             font-family="'.SF Compact'"
             font-style="normal"
             font-variant="normal"
             font-weight="400"
             font-stretch="normal"
             font-size="17.1798px" />
          <path
             d="M 80.3789,17.7963 H 75.698 V 16.018 h 4.3705 V 13.5685 H 75.698 v -1.8036 h 4.6809 V 9.05544 H 72.2168 V 20.5058 h 8.1621 z"
             id="path2078"
             stroke-width="0.268434"
             fill="#4f2683"
             fill-opacity="1"
             font-family="'.SF Compact'"
             font-style="normal"
             font-variant="normal"
             font-weight="400"
             font-stretch="normal"
             font-size="17.1798px" />
          <path
             d="m 96.099,13.0065 c 0,-0.5034 -0.1006,-0.9983 -0.3019,-1.4848 C 95.6013,11.0296 95.2993,10.585 94.8911,10.1879 94.4828,9.78525 93.9628,9.46648 93.3308,9.2316 92.7045,8.99113 91.9635,8.87089 91.1078,8.87089 c -1.1744,0 -2.1614,0.22929 -2.9611,0.68786 -0.7941,0.45295 -1.3953,1.07375 -1.8036,1.86225 -0.4026,0.7885 -0.6039,1.6833 -0.6039,2.6844 v 1.2666 c 0,0.6991 0.0978,1.3702 0.2936,2.0133 0.1957,0.6375 0.5033,1.2052 0.9227,1.7029 0.425,0.4977 0.9759,0.892 1.6525,1.1828 0.6823,0.2852 1.5044,0.4278 2.4663,0.4278 0.9115,0 1.6861,-0.1286 2.3236,-0.3859 0.6431,-0.2572 1.1632,-0.6012 1.5603,-1.0318 0.3971,-0.4306 0.6851,-0.9143 0.864,-1.4512 0.1846,-0.5425 0.2768,-1.0933 0.2768,-1.6526 v -2.1474 h -4.7227 v 2.332 h 1.426 v 0.1342 c 0,0.2181 -0.0587,0.4334 -0.1761,0.6459 -0.1175,0.2125 -0.2964,0.3887 -0.5369,0.5285 -0.2405,0.1398 -0.5453,0.2097 -0.9144,0.2097 -0.5145,0 -0.9059,-0.1202 -1.1744,-0.3607 -0.2684,-0.2461 -0.4529,-0.562 -0.5536,-0.9479 -0.0951,-0.3859 -0.1426,-0.7913 -0.1426,-1.2163 v -1.208 c 0,-0.7941 0.1482,-1.4009 0.4446,-1.8203 0.302,-0.425 0.7466,-0.6375 1.3338,-0.6375 0.2516,0 0.4753,0.0363 0.6711,0.109 0.1957,0.0727 0.3607,0.1734 0.4949,0.302 0.1342,0.123 0.2377,0.2628 0.3104,0.4194 0.0783,0.1566 0.1258,0.3188 0.1426,0.4866 z"
             id="path2080"
             stroke-width="0.268434"
             fill="#4f2683"
             fill-opacity="1"
             font-family="'.SF Compact'"
             font-style="normal"
             font-variant="normal"
             font-weight="400"
             font-stretch="normal"
             font-size="17.1798px" />
          <path
             d="m 100.495,20.5058 0.511,-2.1642 h 3.129 l 0.495,2.1642 h 3.758 L 104.949,9.05544 h -4.463 L 97.0134,20.5058 Z m 2.189,-8.5395 0.889,3.9007 h -1.988 l 0.923,-3.9007 z"
             id="path2082"
             stroke-width="0.268434"
             fill="#4f2683"
             fill-opacity="1"
             font-family="'.SF Compact'"
             font-style="normal"
             font-variant="normal"
             font-weight="400"
             font-stretch="normal"
             font-size="17.1798px" />
          <path
             d="m 114.99,9.05544 h -5.226 V 20.5058 h 3.515 v -3.0953 h 1.661 c 0.967,0 1.767,-0.1902 2.399,-0.5705 0.632,-0.3802 1.102,-0.8836 1.409,-1.5099 0.308,-0.6319 0.462,-1.3198 0.462,-2.0636 0,-0.7326 -0.151,-1.4177 -0.453,-2.0552 -0.302,-0.6431 -0.764,-1.1632 -1.385,-1.56027 -0.62,-0.39706 -1.414,-0.59559 -2.382,-0.59559 z m 0.663,4.21106 c 0,0.3411 -0.067,0.6319 -0.202,0.8724 -0.134,0.2405 -0.324,0.425 -0.57,0.5537 -0.24,0.123 -0.523,0.1845 -0.847,0.1845 h -0.772 v -3.2212 h 0.772 c 0.486,0 0.878,0.137 1.174,0.411 0.297,0.2685 0.445,0.6683 0.445,1.1996 z"
             id="path2084"
             stroke-width="0.268434"
             fill="#4f2683"
             fill-opacity="1"
             font-family="'.SF Compact'"
             font-style="normal"
             font-variant="normal"
             font-weight="400"
             font-stretch="normal"
             font-size="17.1798px" />
        </g>
        <rect
           x="1"
           y="23"
           width="116.499"
           height="6"
           id="rect839-0"
           stroke-width="0.227534"
           fill="#4f2683"
           fill-opacity="1" />
      </g>
    </g>
    <path
       id="rect1224-1-5-8"
       style="fill:#4f2683;fill-opacity:1;stroke-width:3.95949;stroke-linejoin:round"
       d="m 22.499495,22.499495 v 17.285254 a 14.999999,14.999999 0 0 0 2.500106,0.21497 14.999999,14.999999 0 0 0 2.500106,-0.21084 V 22.499495 Z m 0,18.299654 v 6.70037 5.00021 h 5.000212 8.499739 v -5.00021 h -8.499739 v -6.69675 a 16,16 0 0 1 -2.500106,0.19689 16,16 0 0 1 -2.500106,-0.20051 z" />
    <path
       id="path2171"
       style="fill:#000000;stroke-width:5.76659;stroke-linejoin:round"
       d="M 24.999601,10 A 15,15 0 0 0 10,24.999601 15,15 0 0 0 24.999601,39.999719 15,15 0 0 0 39.585273,28.499647 H 34.36647 a 10,10 0 0 1 -9.366869,6.500382 10,10 0 0 1 -9.999906,-10.000428 10,10 0 0 1 9.999906,-9.999906 10,10 0 0 1 10.000424,9.999906 10,10 0 0 1 -0.317812,2.500106 H 39.78888 A 15,15 0 0 0 39.999719,24.999601 15,15 0 0 0 24.999601,10 Z" />
    <path
       id="rect2424-1"
       style="fill:#4f2683;fill-opacity:1;stroke-width:5.37853;stroke-linejoin:round"
       d="m 28.499647,22.499495 v 5.000212 H 47.499518 V 47.499519 H 36.999386 v 5.00021 h 15.500345 v -5.00021 -19.999812 -5.000212 h -5.000213 z" />
    <g
       aria-label="by"
       id="text2142"
       style="font-size:9.1039px;line-height:1.25;font-family:'Lulo Clean';-inkscape-font-specification:'Lulo Clean';letter-spacing:0px;word-spacing:0px;stroke-width:0.243854">
      <path
         d="m 105.23193,45.578781 h 0.67369 v -0.855766 c 0.41878,0.619065 1.12888,0.974117 1.94824,0.974117 1.50214,0 2.63102,-1.11978 2.63102,-2.612819 0,-1.465728 -1.14709,-2.603716 -2.62192,-2.603716 -0.83756,0 -1.52946,0.345948 -1.95734,0.974117 v -2.603715 h -0.67369 z m 2.58551,-4.479119 c 1.14709,0 1.98465,0.828455 1.98465,1.975547 0,1.147091 -0.84666,2.002858 -1.96644,2.002858 -1.10157,0 -1.97555,-0.883079 -1.97555,-1.984651 0,-1.119779 0.85577,-1.993754 1.95734,-1.993754 z"
         style="font-family:Evolventa;-inkscape-font-specification:Evolventa"
         id="path12507" />
      <path
         d="m 111.85232,47.32673 h 0.7192 l 2.87684,-6.727782 h -0.71921 l -1.68422,3.9693 -1.57498,-3.9693 h -0.73741 l 1.93002,4.815963 z"
         style="font-family:Evolventa;-inkscape-font-specification:Evolventa"
         id="path12509" />
    </g>
  </g>
</svg>
