<?xml version="1.0" encoding="UTF-8" standalone="no"?>
<!-- Created with Inkscape (http://www.inkscape.org/) -->

<svg
   width="162mm"
   height="62.5mm"
   viewBox="0 0 162 62.5"
   version="1.1"
   id="svg5"
   inkscape:version="1.1.1 (c3084ef, 2021-09-22)"
   sodipodi:docname="openlink-full-path-trilloop.svg"
   inkscape:export-filename="/Users/hold3n/trilloop/openlink/openlink.png"
   inkscape:export-xdpi="162.56"
   inkscape:export-ydpi="162.56"
   xmlns:inkscape="http://www.inkscape.org/namespaces/inkscape"
   xmlns:sodipodi="http://sodipodi.sourceforge.net/DTD/sodipodi-0.dtd"
   xmlns="http://www.w3.org/2000/svg"
   xmlns:svg="http://www.w3.org/2000/svg">
  <sodipodi:namedview
     id="namedview7"
     pagecolor="#ffffff"
     bordercolor="#666666"
     borderopacity="1.0"
     inkscape:pageshadow="2"
     inkscape:pageopacity="0.0"
     inkscape:pagecheckerboard="0"
     inkscape:document-units="mm"
     showgrid="false"
     inkscape:zoom="1.5554293"
     inkscape:cx="303.77466"
     inkscape:cy="14.786914"
     inkscape:window-width="1990"
     inkscape:window-height="1324"
     inkscape:window-x="0"
     inkscape:window-y="25"
     inkscape:window-maximized="0"
     inkscape:current-layer="text1835" />
  <defs
     id="defs2" />
  <g
     inkscape:label="Layer 1"
     inkscape:groupmode="layer"
     id="layer1">
    <g
       aria-label="OpenLink"
       id="text1835"
       style="font-size:19.7556px;line-height:1.25;stroke-width:0.264583">
      <path
         d="m 70.22444,21.995 c -4.365987,0 -7.724439,3.299186 -7.724439,7.566395 0,4.227699 3.397963,7.546639 7.684928,7.546639 4.247454,0 7.526884,-3.299185 7.526884,-7.566394 0,-4.168432 -3.338697,-7.54664 -7.487373,-7.54664 z m -0.1778,2.60774 c 2.844806,0 4.9389,2.113849 4.9389,4.978411 0,2.825051 -2.054582,4.919144 -4.820366,4.919144 -2.765784,0 -4.9389,-2.173116 -4.9389,-4.958655 0,-2.746029 2.15336,-4.9389 4.820366,-4.9389 z"
         style="font-weight:bold;font-family:Evolventa;-inkscape-font-specification:'Evolventa Bold'"
         id="path11931" />
      <path
         d="m 79.489799,40.505998 h 2.627495 V 35.82392 c 1.007535,0.889002 2.015071,1.284114 3.358452,1.284114 3.160896,0 5.472301,-2.449694 5.472301,-5.768635 0,-3.299185 -2.29165,-5.689613 -5.452546,-5.689613 -1.48167,0 -2.746028,0.533402 -3.595519,1.540937 v -1.284114 h -2.410183 z m 5.61059,-12.446028 c 1.857027,0 3.200408,1.422403 3.200408,3.338696 0,1.857026 -1.363137,3.299185 -3.121385,3.299185 -1.817515,0 -3.220163,-1.422403 -3.220163,-3.279429 0,-1.916294 1.363136,-3.358452 3.14114,-3.358452 z"
         style="font-weight:bold;font-family:Evolventa;-inkscape-font-specification:'Evolventa Bold'"
         id="path11933" />
      <path
         d="m 103.37429,32.544491 c 0.079,-0.375357 0.0988,-0.612424 0.0988,-1.007536 0,-3.397963 -2.39043,-5.887169 -5.650099,-5.887169 -3.220163,0 -5.768635,2.548473 -5.768635,5.768636 0,3.200407 2.587983,5.689612 5.92668,5.689612 1.797759,0 3.200404,-0.632179 4.346234,-1.97556 0.41487,-0.513645 0.69144,-0.968024 0.86924,-1.521181 h -2.86456 c -0.671688,0.790224 -1.323623,1.086558 -2.410181,1.086558 -1.560693,0 -2.706517,-0.829735 -3.022607,-2.15336 z m -8.55417,-2.311405 c 0.414867,-1.422404 1.48167,-2.173116 3.042362,-2.173116 1.619959,0 2.686758,0.770468 3.022608,2.173116 z"
         style="font-weight:bold;font-family:Evolventa;-inkscape-font-specification:'Evolventa Bold'"
         id="path11935" />
      <path
         d="m 105.09301,36.851212 h 2.62749 V 31.695 c 0,-1.422403 0.0988,-2.054582 0.41487,-2.568228 0.39511,-0.691446 1.08656,-1.066802 1.95581,-1.066802 0.67169,0 1.18533,0.217311 1.54093,0.651934 0.39511,0.474135 0.55316,1.284114 0.55316,2.78554 v 5.353768 h 2.62749 v -5.867414 c 0,-1.896537 -0.1778,-2.805295 -0.7112,-3.654786 -0.7112,-1.086558 -1.93605,-1.679226 -3.49674,-1.679226 -1.26436,0 -2.11385,0.355601 -3.08187,1.30387 v -1.047047 h -2.42994 z"
         style="font-weight:bold;font-family:Evolventa;-inkscape-font-specification:'Evolventa Bold'"
         id="path11937" />
      <path
         d="m 117.24269,36.851212 h 7.17129 v -2.587984 h -4.46477 V 22.251823 h -2.70652 z"
         style="font-weight:bold;font-family:Evolventa;-inkscape-font-specification:'Evolventa Bold';fill:#4f2683;fill-opacity:1"
         id="path11939" />
      <path
         d="m 125.87587,36.851212 h 2.62749 V 25.906609 h -2.62749 z m 0,-12.129939 h 2.62749 v -2.46945 h -2.62749 z"
         style="font-weight:bold;font-family:Evolventa;-inkscape-font-specification:'Evolventa Bold';fill:#4f2683;fill-opacity:1"
         id="path11941" />
      <path
         d="m 130.63695,36.851212 h 2.6275 V 31.695 c 0,-1.422403 0.0988,-2.054582 0.41486,-2.568228 0.39512,-0.691446 1.08656,-1.066802 1.95581,-1.066802 0.67169,0 1.18533,0.217311 1.54093,0.651934 0.39512,0.474135 0.55316,1.284114 0.55316,2.78554 v 5.353768 h 2.6275 v -5.867414 c 0,-1.896537 -0.1778,-2.805295 -0.71121,-3.654786 -0.7112,-1.086558 -1.93604,-1.679226 -3.49674,-1.679226 -1.26436,0 -2.11385,0.355601 -3.08187,1.30387 v -1.047047 h -2.42994 z"
         style="font-weight:bold;font-family:Evolventa;-inkscape-font-specification:'Evolventa Bold';fill:#4f2683;fill-opacity:1"
         id="path11943" />
      <path
         d="m 142.45079,36.851212 h 2.62749 v -5.116701 l 3.73381,5.116701 h 3.53625 l -4.54379,-5.590835 3.91161,-5.353768 h -3.14114 l -3.49674,5.156212 v -8.810998 h -2.62749 z"
         style="font-weight:bold;font-family:Evolventa;-inkscape-font-specification:'Evolventa Bold';fill:#4f2683;fill-opacity:1"
         id="path11945" />
      <path
         id="rect5213-1-2"
         style="fill:#4f2683;fill-opacity:1;stroke:none;stroke-width:0.302636;stroke-linejoin:round"
         d="m 122.56758,38.851 -2.05407,3.557891 h 0.93458 l 2.05407,-3.557521 z m -1.58659,3.7e-4 -2.05407,3.557891 h 0.93458 l 2.05444,-3.557517 z m -1.58659,3.74e-4 -2.05406,3.557891 h 0.9342 l 2.05444,-3.557517 z m 4.74858,0.02872 -0.46711,0.809699 4.10813,-3.74e-4 0.4671,-0.809325 z m -0.79367,1.374468 -0.4671,0.809699 4.10812,-3.74e-4 0.46711,-0.809325 z m -0.79367,1.373729 -0.4671,0.809694 4.10813,-3.74e-4 0.4671,-0.80932 z" />
      <path
         id="path1868"
         style="font-weight:bold;font-size:13.4723px;line-height:1.25;font-family:'Source Sans Pro';-inkscape-font-specification:'Source Sans Pro Bold';text-align:end;letter-spacing:0px;text-anchor:end;stroke-width:0.190867"
         d="m 128.99077,38.851107 v 0.694305 h 1.00205 v 2.95611 h 0.82874 v -2.95611 h 1.00205 v -0.694305 z m 3.40753,0 v 3.650415 h 0.82316 V 41.18593 h 0.45335 l 0.69989,1.315592 h 0.92387 l -0.82874,-1.461196 c 0.39191,-0.173563 0.64964,-0.515035 0.64964,-1.052517 0,-0.867812 -0.63273,-1.136702 -1.40536,-1.136702 z m 3.43373,0 v 3.650415 h 0.82294 v -3.650415 z m 1.68389,0 v 3.650415 h 2.26761 v -0.694304 h -1.44445 v -2.956111 z m 2.89791,0 v 3.650415 h 2.26739 v -0.694304 h -1.44444 v -2.956111 z m 2.8977,0 v 3.650415 h 0.82316 v -3.650415 z m 1.66178,0 v 1.959645 c 0,1.226133 0.515,1.757989 1.4612,1.757989 0.94059,0 1.43886,-0.531856 1.43886,-1.757989 v -1.959645 h -0.79503 v 2.043614 c 0,0.716644 -0.23512,0.962964 -0.64383,0.962964 -0.40872,0 -0.63267,-0.24632 -0.63267,-0.962964 v -2.043614 z m 3.74018,0 v 3.650415 h 0.73919 v -1.338141 c 0,-0.358323 -0.0673,-0.890067 -0.10652,-1.242791 h 0.0226 l 0.29099,0.867827 0.52079,1.393978 h 0.45356 l 0.52057,-1.393978 0.29679,-0.867827 h 0.0223 c -0.0392,0.352724 -0.1063,0.884468 -0.1063,1.242791 v 1.338141 h 0.75014 v -3.650415 h -0.89575 l -0.57662,1.623767 c -0.0728,0.212754 -0.13445,0.447804 -0.20723,0.671755 h -0.0223 c -0.0728,-0.223951 -0.14005,-0.459001 -0.21283,-0.671755 l -0.58778,-1.623767 z m -15.49203,0.655005 h 0.42543 c 0.43111,0 0.66617,0.123374 0.66617,0.481697 0,0.358322 -0.23506,0.542902 -0.66617,0.542902 h -0.42543 z m 8.53288,3.759081 c -1.16455,0 -1.95857,0.807341 -1.95857,2.216706 0,1.409367 0.79402,2.256222 1.95857,2.256222 1.16454,0 1.95857,-0.846855 1.95857,-2.256222 0,-1.402748 -0.79403,-2.216706 -1.95857,-2.216706 z m 4.52318,0 c -1.16455,0 -1.95857,0.807341 -1.95857,2.216706 0,1.409367 0.79402,2.256222 1.95857,2.256222 1.16454,0 1.95857,-0.846855 1.95857,-2.256222 0,-1.402748 -0.79403,-2.216706 -1.95857,-2.216706 z m -29.03452,0.07946 v 4.31401 h 0.97263 v -1.799652 h 1.48868 v 1.799652 h 0.97929 v -4.31401 h -0.97929 v 1.660704 h -1.48868 v -1.660704 z m 3.89609,0 1.30336,2.778937 v 1.535073 h 0.97284 V 46.12359 l 1.30335,-2.778937 h -1.01901 l -0.39022,0.992385 c -0.1191,0.32422 -0.23829,0.622033 -0.36401,0.95287 h -0.0264 c -0.1191,-0.330837 -0.23159,-0.62865 -0.35069,-0.95287 l -0.38377,-0.992385 z m 4.0387,0 v 4.31401 h 0.97262 v -1.462271 h 0.53603 c 0.91312,0 1.68734,-0.449909 1.68734,-1.462271 0,-1.045445 -0.76756,-1.389468 -1.71375,-1.389468 z m 3.94162,0 v 4.31401 h 2.76584 v -0.820367 h -1.79321 v -0.9926 h 1.46893 v -0.813924 h -1.46893 v -0.866753 h 1.72706 v -0.820366 z m 3.63152,0 v 4.31401 h 0.97262 v -1.554831 h 0.53604 l 0.82702,1.554831 h 1.09182 l -0.97929,-1.72685 c 0.46317,-0.205119 0.76754,-0.608872 0.76754,-1.244079 0,-1.025595 -0.74781,-1.343081 -1.66092,-1.343081 z m 4.0578,0 v 4.31401 h 2.67994 v -0.820367 h -1.7071 v -3.493643 z m 12.23849,0 v 4.31401 h 0.97263 v -1.462271 h 0.53603 c 0.91311,0 1.68712,-0.449909 1.68712,-1.462271 0,-1.045445 -0.76755,-1.389468 -1.71375,-1.389468 z m -7.29288,0.760879 c 0.58889,0 0.95931,0.516192 0.95931,1.376367 0,0.866793 -0.37042,1.415885 -0.95931,1.415885 -0.58889,0 -0.95953,-0.549092 -0.95953,-1.415885 0,-0.860175 0.37064,-1.376367 0.95953,-1.376367 z m 4.52318,0 c 0.58889,0 0.95931,0.516192 0.95931,1.376367 0,0.866793 -0.37042,1.415885 -0.95931,1.415885 -0.58889,0 -0.95953,-0.549092 -0.95953,-1.415885 0,-0.860175 0.37064,-1.376367 0.95953,-1.376367 z m -20.12711,0.01331 h 0.44992 c 0.52934,0 0.82058,0.165336 0.82058,0.615275 0,0.449938 -0.258,0.688076 -0.79395,0.688076 h -0.47655 z m 7.57314,0 h 0.50296 c 0.50949,0 0.7873,0.145416 0.7873,0.568887 0,0.423472 -0.27781,0.641904 -0.7873,0.641905 h -0.50296 z m 16.2963,0 h 0.44991 c 0.52934,0 0.82059,0.165336 0.82059,0.615275 0,0.449938 -0.25822,0.688076 -0.79417,0.688076 h -0.47633 z" />
    </g>
    <path
       id="rect1224-1-5-8"
       style="fill:#4f2683;fill-opacity:1;stroke-width:3.95949;stroke-linejoin:round"
       d="m 22.499495,22.499495 v 17.285254 a 14.999999,14.999999 0 0 0 2.500106,0.21497 14.999999,14.999999 0 0 0 2.500106,-0.21084 V 22.499495 Z m 0,18.299654 v 6.70037 5.00021 h 5.000212 8.499739 v -5.00021 h -8.499739 v -6.69675 a 16,16 0 0 1 -2.500106,0.19689 16,16 0 0 1 -2.500106,-0.20051 z" />
    <path
       id="path2171"
       style="fill:#000000;stroke-width:5.76659;stroke-linejoin:round"
       d="M 24.999601,10 A 15,15 0 0 0 10,24.999601 15,15 0 0 0 24.999601,39.999719 15,15 0 0 0 39.585273,28.499647 H 34.36647 a 10,10 0 0 1 -9.366869,6.500382 10,10 0 0 1 -9.999906,-10.000428 10,10 0 0 1 9.999906,-9.999906 10,10 0 0 1 10.000424,9.999906 10,10 0 0 1 -0.317812,2.500106 H 39.78888 A 15,15 0 0 0 39.999719,24.999601 15,15 0 0 0 24.999601,10 Z" />
    <path
       id="rect2424-1"
       style="fill:#4f2683;fill-opacity:1;stroke-width:5.37853;stroke-linejoin:round"
       d="m 28.499647,22.499495 v 5.000212 H 47.499518 V 47.499519 H 36.999386 v 5.00021 h 15.500345 v -5.00021 -19.999812 -5.000212 h -5.000213 z" />
    <g
       aria-label="by"
       id="text2142"
       style="font-size:9.1039px;line-height:1.25;font-family:'Lulo Clean';-inkscape-font-specification:'Lulo Clean';letter-spacing:0px;word-spacing:0px;stroke-width:0.243854">
      <path
         d="m 105.23193,45.578781 h 0.67369 v -0.855766 c 0.41878,0.619065 1.12888,0.974117 1.94824,0.974117 1.50214,0 2.63102,-1.11978 2.63102,-2.612819 0,-1.465728 -1.14709,-2.603716 -2.62192,-2.603716 -0.83756,0 -1.52946,0.345948 -1.95734,0.974117 v -2.603715 h -0.67369 z m 2.58551,-4.479119 c 1.14709,0 1.98465,0.828455 1.98465,1.975547 0,1.147091 -0.84666,2.002858 -1.96644,2.002858 -1.10157,0 -1.97555,-0.883079 -1.97555,-1.984651 0,-1.119779 0.85577,-1.993754 1.95734,-1.993754 z"
         style="font-family:Evolventa;-inkscape-font-specification:Evolventa"
         id="path12507" />
      <path
         d="m 111.85232,47.32673 h 0.7192 l 2.87684,-6.727782 h -0.71921 l -1.68422,3.9693 -1.57498,-3.9693 h -0.73741 l 1.93002,4.815963 z"
         style="font-family:Evolventa;-inkscape-font-specification:Evolventa"
         id="path12509" />
    </g>
  </g>
</svg>
